<svg xmlns="http://www.w3.org/2000/svg" width="68.243" height="68.244" viewBox="0 0 68.243 68.244">
  <g id="Group_285" data-name="Group 285" transform="translate(-1825.285 -807.788)">
    <path id="Path_5" data-name="Path 5" d="M1858.625,809.391l.229-.3a5.53,5.53,0,0,1,3.594-2.19,4.3,4.3,0,1,0-4.889-3.791,5.649,5.649,0,0,1-1.142,4.165,5.423,5.423,0,0,1-5.484,2.005A11.112,11.112,0,1,0,1859.1,823.6a7.91,7.91,0,0,1,11.094-4.79,9.919,9.919,0,0,1,.873.521,6.745,6.745,0,1,0-2.3-8.759,8.865,8.865,0,0,1-5.778,4.476l-.974.237-.678.165a3.381,3.381,0,0,1-2.9-.578c-.07-.056-.139-.116-.205-.178a3.393,3.393,0,0,1-.675-.872,3.491,3.491,0,0,1-.2-.452l-.008-.022a2.994,2.994,0,0,1,.423-2.819Z" transform="translate(-0.5 25.995)" fill="#fff"/>
    <path id="Path_6" data-name="Path 6" d="M1893.528,815.915a33.619,33.619,0,1,1-12.717-26.335A33.622,33.622,0,0,1,1893.528,815.915Z" transform="translate(-0.5 25.995)" fill="none" stroke="#fff" stroke-miterlimit="10" stroke-width="1"/>
  </g>
</svg>
