<?xml version="1.0" encoding="UTF-8"?><svg id="Layer_1" xmlns="http://www.w3.org/2000/svg" viewBox="0 0 1386.38 310.65"><defs><style>.cls-1{fill:#fff;}</style></defs><g><path class="cls-1" d="M9.52,134.1L30.79,24.59h40.79c24.92,0,40.31,14.92,34.12,46.82l-3.17,16.19c-6.67,33.96-23.65,46.5-52.21,46.5H9.52Zm66.66-46.82l3.17-15.87c2.86-14.76,1.59-24.92-12.06-24.92h-14.44l-12.7,65.7h14.44c13.65,0,18.73-10.16,21.58-24.92Z"/><path class="cls-1" d="M131.72,134.1h-26.35L126.64,24.59h26.35l-21.27,109.51Z"/><path class="cls-1" d="M238.37,76.17l-2.22,11.74c-6.19,32.38-20,47.77-49.52,47.77-24.12,0-39.83-16.98-33.96-47.77l2.86-14.92c6.82-35.23,24.92-49.99,53.01-49.99,23.65,0,33.65,15.87,33.33,35.39h-25.08c.32-6.82-3.02-13.49-12.54-13.49-10.95,0-18.41,7.94-21.9,25.87l-3.33,17.14c-3.49,17.93,.79,25.87,11.74,25.87s15.87-6.51,18.25-15.71h-14.6l4.13-21.9h39.83Z"/><path class="cls-1" d="M265.35,134.1h-26.35l21.27-109.51h26.35l-21.27,109.51Z"/><path class="cls-1" d="M376.44,24.59l-4.29,21.9h-28.57l-16.98,87.61h-26.35l16.98-87.61h-28.57l4.29-21.9h83.48Z"/><path class="cls-1" d="M342.47,134.1l59.36-109.51h25.39l16.82,109.51h-27.14l-2.22-18.73h-33.8l-9.36,18.73h-29.04Zm49.52-40.63h20.16l-3.81-32.38-16.35,32.38Z"/><path class="cls-1" d="M476.26,112.2h42.85l-4.29,21.9h-69.2l21.27-109.51h26.35l-16.98,87.61Z"/><path class="cls-1" d="M552.91,134.1l21.27-109.51h40.79c24.92,0,40.31,14.92,34.12,46.82l-3.17,16.19c-6.67,33.96-23.65,46.5-52.21,46.5h-40.79Zm66.66-46.82l3.17-15.87c2.86-14.76,1.59-24.92-12.06-24.92h-14.44l-12.7,65.7h14.44c13.65,0,18.73-10.16,21.58-24.92Z"/><path class="cls-1" d="M737.63,24.59l-4.29,21.9h-42.85l-3.81,20h38.09l-4.29,21.9h-38.09l-4.6,23.81h42.85l-4.29,21.9h-69.2l21.27-109.51h69.2Z"/><path class="cls-1" d="M795.88,54.91c-2.86-7.3-7.78-10-17.62-10s-14.6,4.92-14.6,11.11c0,5.4,5.24,9.05,16.98,12.54,18.89,5.71,27.14,14.92,27.14,29.84,0,22.38-16.03,37.3-45.55,37.3-20,0-31.9-5.71-39.52-18.09l21.58-13.65c4.13,6.82,10.16,9.84,20,9.84,11.59,0,16.19-5.24,16.19-11.27,0-5.24-4.44-8.41-17.93-13.01-15.87-5.4-25.87-14.92-25.87-30.15,0-19.36,12.7-36.34,45.55-36.34,17.46,0,29.68,6.51,35.23,18.57l-21.58,13.33Z"/><path class="cls-1" d="M836.66,134.1h-26.34l21.27-109.51h26.35l-21.27,109.51Z"/><path class="cls-1" d="M943.31,76.17l-2.22,11.74c-6.19,32.38-20,47.77-49.52,47.77-24.12,0-39.84-16.98-33.96-47.77l2.86-14.92c6.82-35.23,24.92-49.99,53.01-49.99,23.65,0,33.65,15.87,33.33,35.39h-25.08c.32-6.82-3.02-13.49-12.54-13.49-10.95,0-18.41,7.94-21.9,25.87l-3.33,17.14c-3.49,17.93,.79,25.87,11.75,25.87s15.87-6.51,18.25-15.71h-14.6l4.13-21.9h39.84Z"/><path class="cls-1" d="M1049.96,24.59l-21.27,109.51h-20.95l-28.73-61.74-11.9,61.74h-24.76l21.27-109.51h20.63l28.88,62.53,12.06-62.53h24.76Z"/><path class="cls-1" d="M1131.84,24.59l-4.29,21.9h-42.85l-3.81,20h38.09l-4.29,21.9h-38.09l-4.6,23.81h42.85l-4.29,21.9h-69.2l21.27-109.51h69.2Z"/><path class="cls-1" d="M1175.96,134.1l-10.16-41.42h-13.65l-8.09,41.42h-26.34l21.27-109.51h41.26c22.06,0,35.55,11.74,35.55,30.15,0,16.35-8.41,27.61-23.96,33.65l13.01,45.71h-28.88Zm-7.78-63.32c12.22,0,20.79-1.75,20.79-14.44,0-8.09-6.67-9.84-16.19-9.84h-11.74l-4.6,24.28h11.74Z"/><path class="cls-1" d="M101.89,201.46l-2.22,11.74c-6.19,32.38-20,47.77-49.52,47.77-24.12,0-39.84-16.98-33.96-47.77l2.86-14.92c6.82-35.23,24.92-49.99,53.01-49.99,23.65,0,33.65,15.87,33.33,35.39h-25.08c.32-6.82-3.02-13.49-12.54-13.49-10.95,0-18.41,7.94-21.9,25.87l-3.33,17.14c-3.49,17.93,.79,25.87,11.74,25.87s15.87-6.51,18.25-15.71h-14.6l4.13-21.9h39.84Z"/><path class="cls-1" d="M159.18,259.39l-10.16-41.42h-13.65l-8.09,41.42h-26.35l21.27-109.51h41.26c22.06,0,35.55,11.74,35.55,30.15,0,16.35-8.41,27.62-23.96,33.65l13.01,45.71h-28.88Zm-7.78-63.32c12.22,0,20.79-1.75,20.79-14.44,0-8.09-6.67-9.84-16.19-9.84h-11.74l-4.6,24.28h11.74Z"/><path class="cls-1" d="M184.09,259.39l59.36-109.51h25.39l16.82,109.51h-27.14l-2.22-18.73h-33.8l-9.36,18.73h-29.04Zm49.52-40.63h20.16l-3.81-32.38-16.35,32.38Z"/><path class="cls-1" d="M320.73,222.41l-7.14,36.98h-26.35l21.27-109.51h41.26c21.9,0,35.39,11.27,35.39,30.63,0,26.98-19.2,41.9-49.52,41.9h-14.92Zm14.44-21.9c17.14,0,23.17-5.87,23.17-17.62,0-7.14-5.55-11.11-17.62-11.11h-10.16l-5.55,28.73h10.16Z"/><path class="cls-1" d="M414.2,191.78h33.65l8.09-41.9h26.35l-21.27,109.51h-26.35l8.89-45.71h-33.65l-8.89,45.71h-26.35l21.27-109.51h26.35l-8.09,41.9Z"/><path class="cls-1" d="M501.64,259.39h-26.35l21.27-109.51h26.35l-21.27,109.51Z"/><path class="cls-1" d="M586.71,183.69c.32-6.98-3.17-13.49-12.54-13.49-10.95,0-18.41,7.94-21.9,25.87l-3.33,17.14c-3.33,17.14,.63,25.87,11.74,25.87,9.36,0,14.6-4.76,17.93-13.49h25.08c-7.14,24.28-21.9,35.39-47.14,35.39-23.65,0-39.99-16.51-33.96-47.77l3.33-17.14c6.51-33.65,25.71-47.77,51.9-47.77,22.38,0,34.6,13.97,33.96,35.39h-25.08Z"/><path class="cls-1" d="M673.36,191.94h8.57c7.62,0,15.08-4.28,15.08-13.33,0-5.4-3.81-8.73-9.68-8.73-6.51,0-11.11,3.97-13.49,9.68h-22.7c3.97-18.25,20-31.26,41.9-31.26,18.73,0,30.79,13.97,30.79,27.46,0,14.44-10.47,23.49-19.36,27.46,6.35,4.13,11.43,10.47,11.43,20.79,0,20.16-15.08,36.98-43.49,36.98-21.74,0-33.65-12.22-32.38-31.9h22.69c-.32,6.03,3.65,10,11.9,10,9.68,0,15.24-7.14,15.24-15.24,0-6.35-3.97-10-12.22-10h-8.57l4.29-21.9Z"/><path class="cls-1" d="M720.81,259.39l21.27-109.51h40.79c24.92,0,40.31,14.92,34.12,46.82l-3.17,16.19c-6.67,33.96-23.65,46.5-52.21,46.5h-40.79Zm66.66-46.82l3.17-15.87c2.86-14.76,1.59-24.92-12.06-24.92h-14.44l-12.7,65.7h14.44c13.65,0,18.73-10.16,21.58-24.92Z"/><path class="cls-1" d="M911.56,205.43l40.31-55.55h26.03l-21.27,109.51h-24.76l12.06-61.9-31.11,43.8h-14.12l-13.65-43.33-11.9,61.42h-24.76l21.27-109.51h23.01l18.89,55.55Z"/><path class="cls-1" d="M1062.33,213.21c-6.51,33.17-24.28,47.77-52.37,47.77-24.92,0-39.84-17.93-33.96-47.77l3.33-17.14c6.35-33.01,24.28-47.77,52.53-47.77,24.92,0,39.68,17.46,33.8,47.77l-3.33,17.14Zm-59.99,0c-3.49,17.93,.79,25.87,11.75,25.87s18.41-7.94,21.9-25.87l3.33-17.14c3.49-17.93-.79-25.87-11.75-25.87s-18.41,7.94-21.9,25.87l-3.33,17.14Z"/><path class="cls-1" d="M1158.82,149.88l-4.29,21.9h-28.57l-16.98,87.61h-26.34l16.98-87.61h-28.57l4.28-21.9h83.48Z"/><path class="cls-1" d="M1170.24,259.39h-26.35l21.27-109.51h26.35l-21.27,109.51Z"/><path class="cls-1" d="M1277.52,213.21c-6.51,33.17-24.28,47.77-52.37,47.77-24.92,0-39.83-17.93-33.96-47.77l3.33-17.14c6.35-33.01,24.28-47.77,52.53-47.77,24.92,0,39.68,17.46,33.8,47.77l-3.33,17.14Zm-59.99,0c-3.49,17.93,.79,25.87,11.74,25.87s18.41-7.94,21.9-25.87l3.33-17.14c3.49-17.93-.79-25.87-11.74-25.87s-18.41,7.94-21.9,25.87l-3.33,17.14Z"/><path class="cls-1" d="M1386.39,149.88l-21.27,109.51h-20.95l-28.73-61.74-11.9,61.74h-24.76l21.27-109.51h20.63l28.88,62.53,12.06-62.53h24.76Z"/></g><path class="cls-1" d="M1368.38,85.95s-.03,0-.05,0h0c-16.21,.04-22.94-6.66-22.99-22.87h0c-.02-9.92-8.07-17.96-18-17.96s-18.01,8.06-18.01,18.01c0,.39,.03,.77,.06,1.15l-.02-.02c.89,14.27-4.58,20.65-18.63,21.68-15.81-.11-22.4-6.83-22.44-22.86h0c-.02-9.92-8.07-17.96-18-17.96s-18.01,8.06-18.01,18.01,8.06,18.01,18.01,18.01c.02,0,.03,0,.05,0h0c16.21-.04,22.94,6.66,22.99,22.87h0c.02,9.92,8.07,17.96,18,17.96s18.01-8.06,18.01-18.01c0-.39-.03-.77-.06-1.15l.02,.02c-.89-14.27,4.58-20.65,18.63-21.68,15.81,.11,22.4,6.83,22.44,22.86h0c.02,9.92,8.07,17.96,18,17.96s18.01-8.06,18.01-18.01-8.06-18.01-18.01-18.01Z"/></svg>