<?xml version="1.0" encoding="UTF-8"?><svg id="Layer_1" xmlns="http://www.w3.org/2000/svg" viewBox="0 0 85.31 63.56"><defs><style>.cls-1{fill:#1a1a1a;}</style></defs><path class="cls-1" d="M40.91,21.36l.44-.58c1.7-2.23,4.16-3.84,6.94-4.23,1-.14,1.98-.46,2.92-.98,3.8-2.12,5.33-7,3.41-10.91-2.09-4.26-7.27-5.9-11.41-3.67-2.99,1.61-4.8,4.95-4.35,8.24,.39,2.86-.46,5.75-2.21,8.04h0c-2.47,3.24-6.6,4.75-10.59,3.87-5.09-1.13-10.62-.41-15.51,2.46C1.15,29.14-2.63,41.11,1.92,51.01c5.22,11.37,18.85,15.82,29.69,9.98,5.04-2.71,8.56-7.16,10.21-12.2,2.94-8.98,13.07-13.66,21.42-9.25,.58,.3,1.14,.64,1.68,1.01,4.62,3.09,11,3.21,15.74-.76,4.37-3.67,5.84-9.91,3.6-15.16-3.08-7.23-11.6-10.11-18.36-6.47-2.4,1.29-4.24,3.23-5.41,5.47-2.28,4.36-6.38,7.48-11.16,8.64l-1.88,.46-1.31,.32c-1.94,.47-4.04,.13-5.61-1.12-.14-.11-.27-.22-.4-.34-.51-.48-.95-1.04-1.3-1.69-.15-.28-.28-.58-.38-.87l-.02-.04c-.66-1.84-.36-3.88,.82-5.44l1.65-2.19Z"/></svg>